<?xml version="1.0" encoding="UTF-8"?>
<svg width="194px" height="47px" viewBox="0 0 194 47" version="1.1" xmlns="http://www.w3.org/2000/svg" xmlns:xlink="http://www.w3.org/1999/xlink">
    <!-- Generator: Sketch 49.3 (51167) - http://www.bohemiancoding.com/sketch -->
    <title>Uno/black</title>
    <desc>Created with Sketch.</desc>
    <defs></defs>
    <g id="Page-1" stroke="none" stroke-width="1" fill="none" fill-rule="evenodd">
        <g id="1440x900" transform="translate(-80.000000, -30.000000)" fill="#FFFFFF">
            <g id="Uno/white" transform="translate(80.000000, 30.000000)">
                <g id="New-Uno-Logos-02">
                    <path d="M101.658103,29.6874316 C102.389334,29.6874316 103.038122,29.559287 103.604467,29.30479 C104.169021,29.0493969 104.652027,28.6999116 105.050799,28.2563341 C105.450467,27.8127566 105.755146,27.2974898 105.965733,26.7096376 C106.176321,26.1217854 106.282062,25.4954003 106.282062,24.8304821 L106.282062,24.7632734 C106.282062,24.0983552 106.170048,23.4710739 105.949603,22.8832217 C105.727367,22.2962656 105.405661,21.7747261 104.984486,21.3203952 C104.563312,20.8660643 104.064175,20.5058256 103.487972,20.2396791 C102.909977,19.9735326 102.278215,19.8400113 101.590894,19.8400113 C100.859664,19.8400113 100.210876,19.9672598 99.6454263,20.2217568 C99.079977,20.478046 98.5978665,20.8266352 98.1981987,21.2693166 C97.7985309,21.7137902 97.4929553,22.2299531 97.2832641,22.8169091 C97.0726768,23.4056574 96.9669351,24.0311465 96.9669351,24.6969608 L96.9669351,24.7632734 C96.9669351,25.4281916 97.0780535,26.0554729 97.2993942,26.643325 C97.5207349,27.2311772 97.8424406,27.7518207 98.2645113,28.2070477 C98.6847898,28.6613786 99.1794459,29.0216173 99.7448952,29.2877638 C100.310344,29.5530141 100.948379,29.6874316 101.658103,29.6874316 Z M101.590894,34.0452443 C100.215356,34.0452443 98.9401829,33.8068775 97.7653746,33.3292475 C96.5896702,32.8534099 95.5752668,32.1992451 94.7212681,31.3667532 C93.8672694,30.5351574 93.1960784,29.559287 92.7085913,28.4391418 C92.2211041,27.3189966 91.9764644,26.1173049 91.9764644,24.8304821 L91.9764644,24.7632734 C91.9764644,23.4773467 92.2211041,22.2729666 92.7085913,21.1528215 C93.1960784,20.0335724 93.8726461,19.0532213 94.7382943,18.2090799 C95.6030464,17.3676269 96.6237227,16.7027087 97.7985309,16.2134293 C98.9742353,15.7259421 100.260162,15.4821985 101.658103,15.4821985 C103.032745,15.4821985 104.307919,15.7205654 105.482727,16.1972992 C106.659327,16.674033 107.673731,17.3281978 108.527729,18.1597936 C109.381728,18.9913893 110.052023,19.9672598 110.540406,21.087405 C111.027893,22.2075502 111.271637,23.4110341 111.271637,24.6969608 L111.271637,24.7632734 C111.271637,26.0492 111.027893,27.252684 110.540406,28.3728292 C110.052023,29.4929744 109.375455,30.4742215 108.510703,31.3165707 C107.645951,32.1607121 106.625275,32.8256303 105.450467,33.3131175 C104.274762,33.8006046 102.988836,34.0452443 101.590894,34.0452443 Z" id="Fill-1"></path>
                    <path d="M121.351151,34.0452443 C120.020419,34.0452443 118.783779,33.8006046 117.642127,33.3131175 C116.498683,32.8256303 115.517435,32.1660888 114.697489,31.3335969 C113.876647,30.5020011 113.235028,29.5261307 112.768151,28.4059855 C112.303067,27.2858403 112.070077,26.0940058 112.070077,24.8304821 L112.070077,24.7632734 C112.070077,23.4997496 112.303067,22.3016423 112.768151,21.1707438 C113.235028,20.0389491 113.876647,19.0532213 114.697489,18.2090799 C115.517435,17.3676269 116.498683,16.7027087 117.642127,16.2134293 C118.783779,15.7259421 120.041926,15.4821985 121.417464,15.4821985 C123.103058,15.4821985 124.500104,15.748345 125.609495,16.280638 C126.717991,16.812931 127.693861,17.5441618 128.537107,18.4761225 L125.442818,21.8025057 C124.865719,21.2039001 124.273386,20.7271663 123.663131,20.3714082 C123.052876,20.0183384 122.293866,19.8400113 121.384308,19.8400113 C120.740896,19.8400113 120.158421,19.9672598 119.637777,20.2217568 C119.116238,20.478046 118.661011,20.8266352 118.273889,21.2693166 C117.88587,21.7137902 117.586567,22.2299531 117.37598,22.8169091 C117.164497,23.4056574 117.059651,24.0311465 117.059651,24.6969608 L117.059651,24.7632734 C117.059651,25.4505945 117.164497,26.0940058 117.37598,26.6926114 C117.586567,27.291217 117.891247,27.8127566 118.290915,28.2563341 C118.690583,28.6999116 119.16642,29.0493969 119.721116,29.30479 C120.274916,29.559287 120.895924,29.6874316 121.584142,29.6874316 C122.426491,29.6874316 123.16489,29.5153773 123.796652,29.1712687 C124.428414,28.8271601 125.054799,28.3674525 125.675808,27.7903537 L128.636576,30.7851738 C127.771824,31.7386414 126.7852,32.5200547 125.675808,33.1303098 C124.566416,33.7396687 123.125461,34.0452443 121.351151,34.0452443" id="Fill-2"></path>
                    <path d="M141.644597,23.333072 C141.488673,22.2012773 141.089902,21.2872389 140.44649,20.5891644 C139.803079,19.8901938 138.949976,19.5407085 137.88539,19.5407085 C136.820804,19.5407085 135.961429,19.8848171 135.306368,20.5712421 C134.652203,21.2594593 134.225652,22.1797706 134.026714,23.333072 L141.644597,23.333072 Z M138.384527,34.0452443 C137.053794,34.0452443 135.817154,33.8230075 134.674606,33.3794301 C133.532058,32.9367487 132.545434,32.3040907 131.714735,31.4832483 C130.882243,30.663302 130.233455,29.6928083 129.76837,28.5726631 C129.301494,27.453414 129.0694,26.2051242 129.0694,24.8304821 L129.0694,24.7632734 C129.0694,23.4997496 129.28626,22.3016423 129.718188,21.1707438 C130.151012,20.0389491 130.754098,19.0532213 131.531927,18.2090799 C132.307067,17.3676269 133.232755,16.7027087 134.308991,16.2134293 C135.38433,15.7259421 136.576165,15.4821985 137.88539,15.4821985 C139.371151,15.4821985 140.657077,15.748345 141.744066,16.280638 C142.830159,16.812931 143.73434,17.5280317 144.454818,18.4268362 C145.176191,19.3238484 145.708484,20.3561742 146.051697,21.5202291 C146.395805,22.6833878 146.56786,23.8985213 146.56786,25.1620451 C146.56786,25.3627751 146.562483,25.5733624 146.550833,25.7947031 C146.54008,26.0160437 146.523054,26.2490339 146.501547,26.4927775 L134.092131,26.4927775 C134.33677,27.6478712 134.841284,28.5171039 135.606567,29.1049561 C136.370954,29.6928083 137.319941,29.9858382 138.449943,29.9858382 C139.293189,29.9858382 140.048615,29.8424597 140.713533,29.5530141 C141.378451,29.266257 142.064876,28.8002766 142.7746,28.1568652 L145.669951,30.7179651 C144.827602,31.7601482 143.806926,32.5756139 142.608818,33.1634661 C141.411607,33.7504221 140.002913,34.0452443 138.384527,34.0452443 Z" id="Fill-3"></path>
                    <path d="M148.33052,16.018076 L153.386407,16.018076 L153.386407,19.6115017 C153.897193,18.3909915 154.595268,17.4160172 155.482423,16.6838903 C156.368682,15.9517634 157.566789,15.6193043 159.074952,15.6856169 L159.074952,20.9744943 L158.808806,20.9744943 C157.124108,20.9744943 155.798752,21.4861767 154.834531,22.5050607 C153.868518,23.525737 153.386407,25.1109664 153.386407,27.2625413 L153.386407,33.8489949 L148.33052,33.8489949 L148.33052,16.018076" id="Fill-4"></path>
                    <path d="M169.05679,29.6874316 C169.788021,29.6874316 170.436809,29.559287 171.002258,29.30479 C171.567708,29.0493969 172.049818,28.6999116 172.449486,28.2563341 C172.848258,27.8127566 173.152937,27.2974898 173.36442,26.7096376 C173.575008,26.1217854 173.680749,25.4954003 173.680749,24.8304821 L173.680749,24.7632734 C173.680749,24.0983552 173.568735,23.4710739 173.347394,22.8832217 C173.126054,22.2962656 172.803452,21.7747261 172.383173,21.3203952 C171.961103,20.8660643 171.461966,20.5058256 170.885763,20.2396791 C170.308664,19.9735326 169.676903,19.8400113 168.988685,19.8400113 C168.257455,19.8400113 167.608666,19.9672598 167.044113,20.2217568 C166.477768,20.478046 165.995657,20.8266352 165.59599,21.2693166 C165.197218,21.7137902 164.891642,22.2299531 164.681951,22.8169091 C164.469572,23.4056574 164.364726,24.0311465 164.364726,24.6969608 L164.364726,24.7632734 C164.364726,25.4281916 164.475844,26.0554729 164.698081,26.643325 C164.919422,27.2311772 165.241128,27.7518207 165.662302,28.2070477 C166.083477,28.6613786 166.578133,29.0216173 167.142686,29.2877638 C167.709031,29.5530141 168.347066,29.6874316 169.05679,29.6874316 Z M168.988685,34.0452443 C167.614043,34.0452443 166.33887,33.8068775 165.164062,33.3292475 C163.988357,32.8534099 162.973058,32.1992451 162.119059,31.3667532 C161.265956,30.5351574 160.594765,29.559287 160.107278,28.4391418 C159.618895,27.3189966 159.375151,26.1173049 159.375151,24.8304821 L159.375151,24.7632734 C159.375151,23.4773467 159.618895,22.2729666 160.107278,21.1528215 C160.594765,20.0335724 161.271333,19.0532213 162.136981,18.2090799 C163.001733,17.3676269 164.020617,16.7027087 165.197218,16.2134293 C166.372026,15.7259421 167.658849,15.4821985 169.05679,15.4821985 C170.431432,15.4821985 171.706606,15.7205654 172.881414,16.1972992 C174.058014,16.674033 175.071522,17.3281978 175.926416,18.1597936 C176.779519,18.9913893 177.45071,19.9672598 177.938197,21.087405 C178.426581,22.2075502 178.670324,23.4110341 178.670324,24.6969608 L178.670324,24.7632734 C178.670324,26.0492 178.426581,27.252684 177.938197,28.3728292 C177.45071,29.4929744 176.774142,30.4742215 175.90939,31.3165707 C175.043742,32.1607121 174.023962,32.8256303 172.848258,33.3131175 C171.673449,33.8006046 170.386627,34.0452443 168.988685,34.0452443 Z" id="Fill-5"></path>
                    <path d="M186.58751,33.9789317 C185.32309,33.9789317 184.030891,33.7620716 182.711808,33.3292475 C181.391829,32.8973196 180.132786,32.2144791 178.935574,31.2834144 L181.097903,27.9570313 C182.073773,28.6667553 183.044267,29.1999444 184.009384,29.5530141 C184.973605,29.9087722 185.87689,30.0862032 186.721031,30.0862032 C187.452262,30.0862032 187.989932,29.9643314 188.333144,29.7196917 C188.677253,29.4768443 188.849307,29.1542425 188.849307,28.7554708 L188.849307,28.6891582 C188.849307,28.4230117 188.749838,28.1900215 188.550005,27.9901876 C188.350171,27.7903537 188.077751,27.6191955 187.734539,27.4740247 C187.391326,27.3306461 186.997035,27.1926442 186.554354,27.0582268 C186.10988,26.9256016 185.6439,26.782223 185.156413,26.6262988 C184.535404,26.449764 183.909019,26.2329038 183.277257,25.9775107 C182.645495,25.7230138 182.073773,25.3905547 181.563883,24.9801335 C181.053097,24.5697123 180.637299,24.0643028 180.316489,23.4648011 C179.994784,22.8679877 179.834379,22.1349647 179.834379,21.2693166 L179.834379,21.2039001 C179.834379,20.2943422 180.004641,19.490526 180.349646,18.7924515 C180.693754,18.0925848 181.158839,17.5002521 181.746691,17.0118688 C182.334543,16.5243816 183.021864,16.1587662 183.80955,15.9141265 C184.595444,15.6703829 185.444962,15.5485111 186.35452,15.5485111 C187.485419,15.5485111 188.633343,15.7313188 189.797398,16.0969342 C190.961453,16.4634457 192.031416,16.9679591 193.007286,17.6113705 L191.077948,21.1044312 C190.190793,20.593645 189.326937,20.1886005 188.483692,19.8901938 C187.640447,19.5899949 186.897566,19.4403435 186.254155,19.4403435 C185.634043,19.4403435 185.168062,19.5568386 184.85711,19.7898288 C184.547054,20.022819 184.392026,20.3176412 184.392026,20.6716071 L184.392026,20.7388158 C184.392026,20.9825594 184.490598,21.1985234 184.691328,21.3867078 C184.891162,21.5748922 185.156413,21.7523232 185.488872,21.9190008 C185.822227,22.0856784 186.204869,22.2469793 186.637693,22.4020074 C187.069621,22.5570354 187.529328,22.7129597 188.017712,22.8679877 C188.637824,23.0669255 189.269586,23.3052924 189.913893,23.5821923 C190.557305,23.8599883 191.133507,24.1978241 191.644294,24.5974919 C192.153288,24.9962636 192.575358,25.4846469 192.907817,26.0608495 C193.240276,26.6379483 193.406058,27.3369189 193.406058,28.1568652 L193.406058,28.2231778 C193.406058,29.2205551 193.2349,30.0808265 192.890791,30.8013039 C192.546683,31.5226774 192.064572,32.1159063 191.44446,32.5809906 C190.823451,33.046971 190.096701,33.3964563 189.265105,33.6285503 C188.433509,33.8615405 187.540978,33.9789317 186.58751,33.9789317" id="Fill-6"></path>
                    <path d="M68.2284906,16.3603923 L68.2284906,26.6012076 C68.2284906,27.8306789 67.9408373,28.7357562 67.3628424,29.3173356 C66.7857436,29.898915 66.0106031,30.1892566 65.037421,30.1892566 C64.065135,30.1892566 63.2899945,29.8872655 62.7128957,29.2796987 C62.1349008,28.6730281 61.8481437,27.738379 61.8481437,26.4757513 L61.8481437,16.3818991 L56.9114399,16.3818991 L56.9114399,26.5752202 C56.9114399,27.939109 57.0987281,29.1219823 57.4724086,30.1274246 C57.846089,31.1328669 58.3828626,31.9644627 59.0800409,32.6195236 C59.7781154,33.2772728 60.6267374,33.7638639 61.6232185,34.0784006 C62.6196997,34.3938335 63.7416371,34.5524461 64.9881346,34.5524461 C66.2346322,34.5524461 67.360154,34.3938335 68.3655963,34.0784006 C69.3710387,33.7638639 70.2268296,33.2772728 70.9338652,32.6195236 C71.6400047,31.9644627 72.1884278,31.1248018 72.5791344,30.1032294 C72.9689449,29.0798648 73.1651944,27.8638352 73.1651944,26.4515562 L73.1651944,16.3603923 L68.2284906,16.3603923" id="Fill-7"></path>
                    <path d="M79.5213462,33.8588522 L79.5213462,23.6189331 C79.5213462,22.3894617 79.8089994,21.4843844 80.3860982,20.9028051 C80.9640931,20.3212257 81.7383375,20.030884 82.7115196,20.030884 C83.6847017,20.030884 84.4589461,20.3328752 85.036941,20.9395458 C85.6140398,21.5462164 85.9016931,22.4808656 85.9016931,23.7443893 L85.9016931,33.8382415 L90.8375008,33.8382415 L90.8375008,23.6449204 C90.8375008,22.2810317 90.6502125,21.0981584 90.2765321,20.0927161 C89.9037477,19.0872738 89.3669742,18.255678 88.6697958,17.599721 C87.9708252,16.9428678 87.1230994,16.4571729 86.1266182,16.14174 C85.129241,15.8263071 84.0073035,15.6676946 82.7617021,15.6676946 C81.5143084,15.6676946 80.3887866,15.8263071 79.3833443,16.14174 C78.377902,16.4571729 77.5230072,16.9428678 76.8159715,17.599721 C76.109832,18.255678 75.5614089,19.0953388 75.1707023,20.1169112 C74.7799957,21.1402758 74.5846423,22.3563054 74.5846423,23.7685845 L74.5846423,33.8588522 L79.5213462,33.8588522" id="Fill-8"></path>
                    <path d="M20.0658326,21.5363592 C19.3587969,21.5363592 18.7852826,22.1098735 18.7852826,22.8169091 C18.7852826,23.5239448 19.3587969,24.0974591 20.0658326,24.0974591 C20.7728682,24.0974591 21.3463825,23.5239448 21.3463825,22.8169091 C21.3463825,22.1098735 20.7728682,21.5363592 20.0658326,21.5363592" id="Fill-10"></path>
                    <path d="M32.6643294,37.42181 C29.99928,39.0715598 26.8682502,40.0402613 23.5033341,40.0402613 C23.3115652,40.0402613 23.1251731,40.0169623 22.9343003,40.0106895 C22.3016423,39.9766371 21.6958678,39.9264546 21.1151846,39.8583497 C20.215484,39.7517119 19.3614853,39.6199828 18.595306,39.4613703 C18.2960032,39.3995383 18.0352334,39.2552636 17.8094121,39.0706637 C17.4868103,38.8089977 17.2439629,38.4541357 17.1489745,38.0293767 C16.866698,36.7622685 16.2680924,35.2128837 14.9561784,33.995958 C14.2805068,33.3686767 13.6460566,33.0451787 12.97845,32.7163041 C11.6118729,32.0433209 10.3841938,31.426793 8.21290441,30.5288846 C8.03099284,30.454507 7.87148416,30.3120245 7.78545701,30.1345935 C6.6850264,27.8503935 6.05505675,25.2964625 6.05505675,22.5910879 C6.05505675,15.6434994 10.1207357,9.65385916 16.0001537,6.84811953 C16.2367283,6.73431278 16.5485767,6.84543118 16.674033,7.07752526 C18.71897,10.8555509 17.9913237,11.6073923 17.7439957,11.8547204 C17.314756,12.2848561 16.3290283,12.7069268 15.2277015,13.4050013 C14.7213959,13.726707 14.3450271,14.0421399 14.1030758,14.2392854 C16.2385206,13.3297276 17.8049316,13.641576 18.4268362,13.8127342 C19.621359,14.1416088 19.1670281,14.45973 22.0525221,16.0619857 C22.6663616,16.4025098 23.47197,16.8236844 23.9137553,17.7296578 C24.1521222,18.2189372 24.1879668,18.6508652 24.2040969,18.8148544 C24.397658,20.7280624 25.8269632,23.4603205 27.1119938,25.1548761 C27.7294178,25.9685496 28.7447174,27.1119938 30.3281546,28.1962943 C30.6355224,28.4059855 31.0369825,28.4418301 31.3748183,28.2859059 C32.5451459,27.7437557 33.8489949,27.0304472 35.1976497,26.0850447 C37.7874253,24.2704095 39.6065411,22.2586288 40.8351163,20.6285935 C40.8817144,21.0542487 40.902325,21.4879689 40.9184551,21.9216891 C40.9265202,22.1457181 40.9516114,22.3652666 40.9516114,22.5910879 C40.9516114,28.8630047 37.6315011,34.3454433 32.6643294,37.42181 Z M23.1565371,0.0304679487 C10.4298957,0.0304679487 0.112014517,10.3474531 0.112014517,23.0749906 C0.112014517,35.801632 10.4298957,46.1195132 23.1565371,46.1195132 C35.8840747,46.1195132 46.2010598,35.801632 46.2010598,23.0749906 C46.2010598,10.3474531 35.8840747,0.0304679487 23.1565371,0.0304679487 Z" id="Fill-11"></path>
                </g>
            </g>
        </g>
    </g>
</svg>