<svg width="17px" height="17px" viewBox="0 0 17 17" version="1.1" xmlns="http://www.w3.org/2000/svg" xmlns:xlink="http://www.w3.org/1999/xlink">
    <g id="1440x900" stroke="none" stroke-width="1" fill="none" fill-rule="evenodd">
        <g id="change-background-" transform="translate(-1021.000000, -162.000000)" fill="#000000" fill-rule="nonzero">
            <g id="background-picker" transform="translate(337.000000, 152.000000)">
                <g id="expand-button" transform="translate(680.000000, 6.000000)">
                    <g id="icon" transform="translate(4.000000, 4.000000)">
                        <polygon id="Shape" points="3.77643624 15.6797566 2.20062935 15.6797566 5.83620385 12.0575975 4.92731022 11.1451823 1.3007911 14.758286 1.3007911 13.2041114 0.0129123157 13.2041114 0.0129123157 16.9676353 3.77643624 16.9676353"></polygon>
                        <polygon id="Shape" points="13.2235638 15.6797566 13.2235638 16.9676353 16.9870877 16.9676353 16.9870877 13.2041114 15.6992089 13.2041114 15.6992089 14.758286 12.0726898 11.1451823 11.1637962 12.0575975 14.7993706 15.6797566"></polygon>
                        <polygon id="Shape" points="1.3007911 2.24171402 4.92731022 5.85481769 5.83620385 4.94240253 2.20062935 1.32024344 3.77643624 1.32024344 3.77643624 0.0323646515 0.0129123157 0.0323646515 0.0129123157 3.79588857 1.3007911 3.79588857"></polygon>
                        <polygon id="Shape" points="12.0726898 5.85481769 15.6992089 2.24171402 15.6992089 3.79588857 16.9870877 3.79588857 16.9870877 0.0323646515 13.2235638 0.0323646515 13.2235638 1.32024344 14.7993706 1.32024344 11.1637962 4.94240253"></polygon>
                    </g>
                </g>
            </g>
        </g>
    </g>
</svg>