<svg width="60px" height="60px" viewBox="0 0 60 60" version="1.1" xmlns="http://www.w3.org/2000/svg" xmlns:xlink="http://www.w3.org/1999/xlink">
    <g id="1920x1024" stroke="none" stroke-width="1" fill="none" fill-rule="evenodd">
        <g id="Change-Background" transform="translate(-63.000000, -625.000000)" fill-rule="nonzero" stroke="#000000">
            <g id="legal-icon" transform="translate(63.000000, 625.000000)">
                <g id="Group-3">
                    <path d="M5.13571431,12.85 L5.13571431,42.2293544 L59.15,58.8491346 L59.15,12.85 L5.13571431,12.85 Z" id="Rectangle-52" stroke-width="1.70000005" fill="#000000"></path>
                    <path d="M14.3929041,8.85620703 L14.3929041,46.6788735 L50.749953,46.6788735 L50.749953,8.85620703 L14.3929041,8.85620703 Z" id="Rectangle-2" stroke-width="1.70000005" fill="#F5F5F5" transform="translate(32.571429, 27.767540) rotate(-45.000000) translate(-32.571429, -27.767540) "></path>
                    <path d="M-0.206323445,27.222248 L-0.206323445,28.0865337 L36.6579622,28.0865337 L36.6579622,27.222248 L-0.206323445,27.222248 Z" id="Rectangle-53" stroke-width="0.850000024" transform="translate(18.225819, 27.654391) rotate(-45.000000) translate(-18.225819, -27.654391) "></path>
                    <path d="M4.9365337,32.3651051 L4.9365337,33.2293908 L41.8008194,33.2293908 L41.8008194,32.3651051 L4.9365337,32.3651051 Z" id="Rectangle-53" stroke-width="0.850000024" transform="translate(23.368677, 32.797248) rotate(-45.000000) translate(-23.368677, -32.797248) "></path>
                    <path d="M10.0793908,37.5079623 L10.0793908,38.372248 L46.9436765,38.372248 L46.9436765,37.5079623 L10.0793908,37.5079623 Z" id="Rectangle-53" stroke-width="0.850000024" transform="translate(28.511534, 37.940105) rotate(-45.000000) translate(-28.511534, -37.940105) "></path>
                    <path d="M1.01614725,27.4214286 L6.71101904,59.15 L58.9838527,59.15 L53.288981,27.4214286 L1.01614725,27.4214286 Z" id="Rectangle-51" stroke-width="1.70000005" fill="#F5F5F5"></path>
                </g>
            </g>
        </g>
    </g>
</svg>